<?xml version="1.0" standalone="no"?>
<!DOCTYPE svg PUBLIC "-//W3C//DTD SVG 20010904//EN"
 "http://www.w3.org/TR/2001/REC-SVG-20010904/DTD/svg10.dtd">
<svg version="1.0" xmlns="http://www.w3.org/2000/svg"
 width="44.000000pt" height="60.000000pt" viewBox="0 0 44.000000 60.000000"
 preserveAspectRatio="xMidYMid meet">

<g transform="translate(0.000000,60.000000) scale(0.100000,-0.100000)"
fill="#000000" stroke="none">
<path d="M268 508 c-10 -10 -13 -18 -7 -18 14 0 41 28 32 33 -5 2 -16 -4 -25
-15z"/>
<path d="M228 458 c-10 -10 -14 -18 -9 -18 10 0 36 29 30 34 -2 1 -12 -6 -21
-16z"/>
<path d="M209 403 c-52 -50 -79 -84 -79 -99 0 -22 70 -94 91 -94 18 0 159 142
165 167 13 48 -32 103 -83 103 -8 0 -51 -35 -94 -77z"/>
<path d="M80 450 c-26 -26 -26 -74 1 -99 20 -19 21 -19 65 27 24 26 44 50 44
54 0 13 -44 38 -67 38 -13 0 -32 -9 -43 -20z"/>
<path d="M33 63 c11 -3 18 -15 18 -36 l2 -32 4 30 c3 16 10 33 16 37 7 4 -4 7
-23 7 -19 -1 -27 -3 -17 -6z"/>
<path d="M102 33 c1 -37 1 -37 5 -5 3 24 9 32 24 32 10 0 19 -4 19 -10 0 -5
-7 -10 -15 -10 -12 0 -12 -3 2 -20 24 -27 28 -25 30 15 2 34 0 35 -33 35 -33
0 -34 -1 -32 -37z"/>
<path d="M195 39 c-20 -37 -16 -43 17 -30 18 7 29 6 38 -2 10 -10 11 -7 5 13
-9 29 -24 50 -36 50 -5 0 -16 -14 -24 -31z m40 1 c3 -5 -1 -10 -9 -10 -9 0
-16 5 -16 10 0 6 4 10 9 10 6 0 13 -4 16 -10z"/>
<path d="M280 35 c0 -32 2 -35 30 -35 17 0 30 5 30 10 0 6 -11 10 -25 10 -37
0 -35 37 3 43 25 4 25 4 -5 6 -31 1 -33 -1 -33 -34z"/>
<path d="M350 35 c0 -19 5 -35 10 -35 6 0 10 7 10 15 0 8 4 15 9 15 5 0 11 -7
15 -15 3 -8 11 -15 17 -15 8 0 8 4 -1 15 -7 8 -9 23 -4 37 7 23 6 23 -15 4
-19 -17 -21 -17 -21 -3 0 10 -4 17 -10 17 -5 0 -10 -16 -10 -35z"/>
</g>
</svg>
