<svg id="svg" version="1.1" xmlns="http://www.w3.org/2000/svg" xmlns:xlink="http://www.w3.org/1999/xlink" width="400" height="629.8298298298298" viewBox="0, 0, 400,629.8298298298298"><g id="svgg"><path id="path0" d="M185.941 13.900 C 170.850 29.067,171.000 28.861,171.000 34.400 C 171.000 39.607,171.259 39.951,186.411 54.900 C 197.779 66.115,201.277 69.343,200.231 67.651 C 200.016 67.302,203.045 64.271,205.500 62.381 L 206.800 61.380 196.582 51.441 C 190.962 45.975,186.464 41.403,186.585 41.282 C 186.707 41.160,185.345 39.564,183.559 37.734 C 181.107 35.222,180.381 34.235,180.594 33.704 C 180.750 33.317,180.917 32.765,180.965 32.478 C 181.075 31.827,194.845 18.000,195.383 18.000 C 195.599 18.000,196.741 17.055,197.922 15.900 L 200.068 13.800 203.814 17.800 L 207.560 21.800 206.099 23.300 C 205.295 24.125,204.809 24.804,205.019 24.810 C 205.228 24.815,203.240 26.871,200.600 29.378 L 195.800 33.937 199.191 37.369 C 202.254 40.467,203.369 41.359,203.109 40.500 C 202.991 40.109,212.048 31.225,212.464 31.324 C 212.638 31.366,213.209 30.872,213.731 30.226 L 214.682 29.053 216.173 29.761 C 216.994 30.150,217.576 30.557,217.467 30.666 C 217.203 30.930,219.997 33.392,220.957 33.743 C 221.374 33.895,221.618 34.115,221.500 34.234 C 221.134 34.599,223.941 37.392,224.678 37.396 C 225.061 37.398,225.576 37.804,225.822 38.297 C 226.375 39.403,227.614 40.800,228.042 40.800 C 229.663 40.800,231.236 33.751,230.307 30.646 C 229.821 29.022,217.693 16.000,216.666 16.000 C 216.446 16.000,214.301 13.930,211.898 11.400 C 209.496 8.870,207.321 6.798,207.065 6.795 C 206.809 6.792,205.277 5.352,203.659 3.595 C 202.042 1.838,200.416 0.400,200.046 0.400 C 199.676 0.400,193.329 6.475,185.941 13.900 M190.394 23.500 L 185.400 28.600 190.500 23.606 C 193.305 20.859,195.600 18.564,195.600 18.506 C 195.600 18.219,195.033 18.763,190.394 23.500 M159.731 42.395 C 158.812 42.589,157.462 43.056,156.731 43.432 C 155.375 44.129,128.600 70.265,128.600 70.891 C 128.600 71.327,155.956 98.733,156.908 99.252 C 157.298 99.464,157.793 99.528,158.008 99.395 C 158.224 99.262,158.400 99.364,158.400 99.623 C 158.400 99.896,158.735 100.006,159.200 99.884 C 159.640 99.769,160.000 99.859,160.000 100.084 C 160.000 100.700,165.182 100.277,165.583 99.628 C 165.763 99.336,166.124 99.230,166.386 99.391 C 166.658 99.559,167.209 99.312,167.671 98.815 C 168.117 98.337,168.733 98.042,169.041 98.160 C 169.348 98.278,169.600 98.149,169.600 97.874 C 169.600 97.384,173.594 93.200,174.061 93.200 C 174.419 93.200,181.200 86.344,181.200 85.982 C 181.200 85.659,162.993 67.884,162.473 67.698 C 162.316 67.642,160.660 69.137,158.793 71.022 L 155.400 74.448 161.540 80.328 L 167.679 86.209 165.464 88.304 C 164.079 89.614,162.894 90.400,162.304 90.400 C 161.489 90.400,142.905 72.466,142.499 71.289 C 142.444 71.128,146.449 66.880,151.399 61.849 C 156.350 56.819,160.400 52.530,160.400 52.318 C 160.400 52.107,160.625 52.012,160.900 52.109 C 161.175 52.206,161.790 52.141,162.266 51.965 C 162.896 51.733,163.198 51.818,163.375 52.280 C 163.509 52.629,163.740 52.793,163.889 52.644 C 164.198 52.335,171.600 59.575,171.600 60.187 C 171.600 60.408,173.957 62.951,176.838 65.839 C 182.382 71.393,182.651 71.944,180.500 73.320 C 179.617 73.885,179.942 74.432,183.069 77.646 C 186.869 81.550,186.130 81.684,191.730 76.071 L 196.447 71.341 193.023 68.000 C 191.141 66.162,189.600 64.460,189.600 64.218 C 189.600 63.221,169.827 44.053,167.937 43.218 C 165.764 42.258,162.107 41.891,159.731 42.395 M232.900 43.088 C 231.965 43.412,231.200 43.839,231.200 44.038 C 231.200 44.237,230.974 44.400,230.698 44.400 C 230.098 44.400,203.600 70.821,203.600 71.419 C 203.600 72.084,229.749 97.802,230.300 97.677 C 230.575 97.616,230.800 97.843,230.800 98.182 C 230.800 98.752,231.288 98.987,232.145 98.832 C 232.335 98.798,232.711 99.072,232.980 99.441 C 233.959 100.780,242.800 100.527,242.800 99.161 C 242.800 98.936,242.973 98.860,243.185 98.991 C 243.397 99.122,243.922 98.878,244.352 98.448 C 244.782 98.018,245.203 97.736,245.287 97.820 C 245.372 97.905,247.184 96.225,249.314 94.086 L 253.187 90.199 252.447 87.755 L 251.707 85.310 253.463 85.839 C 254.429 86.130,255.485 86.266,255.810 86.141 C 256.149 86.011,256.400 86.142,256.400 86.450 C 256.400 87.039,263.385 80.238,268.498 74.671 L 271.739 71.143 258.169 57.565 C 246.137 45.525,244.361 43.897,242.485 43.194 C 239.962 42.247,235.477 42.198,232.900 43.088 M241.859 55.489 C 243.651 57.090,245.269 58.400,245.454 58.400 C 245.639 58.400,248.590 61.195,252.012 64.612 L 258.233 70.824 254.816 74.317 L 251.400 77.811 245.305 71.816 L 239.210 65.820 237.214 67.786 C 236.117 68.867,235.307 69.841,235.416 69.950 C 235.525 70.058,235.034 70.746,234.325 71.477 L 233.037 72.807 235.018 74.869 C 236.108 76.004,238.112 78.072,239.471 79.466 C 240.831 80.860,241.830 82.000,241.693 82.000 C 241.556 82.000,242.056 82.632,242.805 83.406 L 244.168 84.811 241.426 87.574 C 237.336 91.695,238.431 92.199,227.328 81.088 L 217.647 71.400 226.976 62.000 C 232.107 56.830,236.551 52.396,236.852 52.146 C 237.511 51.600,237.491 51.587,241.859 55.489 M186.106 88.106 C 171.784 102.470,171.314 103.071,170.914 107.555 C 170.697 109.982,171.616 113.959,172.628 114.971 C 172.943 115.286,173.200 115.692,173.200 115.874 C 173.200 116.056,179.230 122.232,186.600 129.600 L 200.000 142.996 213.600 129.400 C 221.080 121.922,227.200 115.578,227.200 115.302 C 227.200 115.026,227.363 114.800,227.563 114.800 C 229.218 114.800,229.564 106.959,228.061 103.510 C 227.254 101.658,221.000 94.658,220.359 94.889 C 220.189 94.950,218.493 96.522,216.590 98.382 L 213.130 101.763 216.166 104.582 C 220.497 108.603,220.922 107.685,209.400 119.200 L 199.600 128.994 190.281 119.681 C 182.107 111.513,180.950 110.202,180.870 109.018 C 180.763 107.419,179.987 108.298,191.310 97.185 L 200.019 88.637 203.310 91.881 C 206.022 94.555,206.741 95.068,207.400 94.798 C 208.323 94.421,214.000 89.026,214.000 88.526 C 214.000 87.917,200.604 74.800,199.982 74.800 C 199.647 74.800,193.403 80.788,186.106 88.106 M61.700 137.300 C 27.765 171.236,0.000 199.271,0.000 199.602 C -0.000 200.343,57.995 258.400,58.736 258.400 C 59.030 258.400,69.559 248.131,82.135 235.580 L 105.000 212.761 105.200 302.680 L 105.400 392.600 199.899 392.701 L 294.398 392.802 294.499 302.582 L 294.600 212.363 317.665 235.381 C 330.351 248.042,340.882 258.400,341.066 258.400 C 341.251 258.400,354.631 245.170,370.800 229.000 L 400.199 199.599 338.100 137.500 L 276.001 75.401 238.000 113.400 L 200.000 151.398 162.099 113.499 C 141.254 92.655,124.019 75.600,123.799 75.600 C 123.579 75.600,95.634 103.365,61.700 137.300 M128.945 400.824 C 116.389 402.041,108.777 407.664,106.137 417.670 C 105.291 420.879,104.844 463.571,105.579 471.113 C 107.064 486.367,115.915 493.600,133.099 493.600 L 135.218 493.600 135.109 486.355 L 135.000 479.110 132.503 478.207 C 126.894 476.176,127.219 478.064,127.209 447.526 C 127.203 430.479,127.341 421.680,127.625 420.926 C 128.511 418.582,131.973 416.031,134.300 416.009 L 135.200 416.000 135.200 408.200 L 135.200 400.400 133.700 400.455 C 132.875 400.484,130.735 400.651,128.945 400.824 M138.000 408.000 C 138.000 412.180,138.065 415.600,138.145 415.600 C 144.739 415.600,147.264 418.912,147.522 427.900 L 147.697 434.000 157.896 434.000 L 168.095 434.000 167.902 426.300 C 167.689 417.747,167.153 415.195,164.776 411.400 C 163.470 409.317,160.871 406.400,160.319 406.400 C 160.143 406.400,159.640 406.040,159.200 405.600 C 158.760 405.160,158.130 404.800,157.800 404.800 C 157.470 404.800,157.200 404.641,157.200 404.446 C 157.200 404.051,154.138 402.810,150.800 401.852 C 148.314 401.138,142.775 400.400,139.910 400.400 L 138.000 400.400 138.000 408.000 M176.400 447.200 L 176.400 492.000 187.200 492.000 L 198.000 492.000 198.000 447.200 L 198.000 402.400 187.200 402.400 L 176.400 402.400 176.400 447.200 M200.000 410.200 L 200.000 418.000 213.800 418.000 L 227.600 418.000 227.600 410.200 L 227.600 402.400 213.800 402.400 L 200.000 402.400 200.000 410.200 M230.400 410.200 L 230.400 418.000 262.400 418.000 L 294.400 418.000 294.400 410.200 L 294.400 402.400 262.400 402.400 L 230.400 402.400 230.400 410.200 M251.600 456.400 L 251.600 492.000 262.200 492.000 L 272.800 492.000 272.800 456.400 L 272.800 420.800 262.200 420.800 L 251.600 420.800 251.600 456.400 M200.000 445.400 L 200.000 453.200 213.000 453.200 L 226.000 453.200 226.000 445.400 L 226.000 437.600 213.000 437.600 L 200.000 437.600 200.000 445.400 M136.000 445.756 L 136.000 452.712 140.300 452.872 C 147.119 453.126,147.314 453.401,147.519 463.079 C 147.699 471.544,147.315 473.756,145.253 476.139 C 144.436 477.083,143.570 477.790,143.330 477.710 C 143.090 477.630,142.623 477.834,142.294 478.163 C 141.965 478.492,141.608 478.675,141.501 478.568 C 141.394 478.461,140.563 478.492,139.653 478.638 L 138.000 478.902 138.000 486.251 L 138.000 493.600 140.348 493.600 C 145.493 493.600,151.444 490.485,153.448 486.743 C 153.732 486.212,154.186 486.655,155.800 489.035 L 157.800 491.984 162.900 491.992 L 168.000 492.000 168.000 465.400 L 168.000 438.800 152.000 438.800 L 136.000 438.800 136.000 445.756 M200.000 484.000 L 200.000 492.000 213.800 492.000 L 227.600 492.000 227.600 484.000 L 227.600 476.000 213.800 476.000 L 200.000 476.000 200.000 484.000 M105.314 548.900 C 105.488 602.330,105.382 600.039,108.014 607.313 C 112.800 620.540,125.515 628.394,143.900 629.479 L 148.000 629.721 148.000 619.312 L 148.000 608.903 145.958 608.632 C 143.807 608.347,140.800 607.224,140.800 606.706 C 140.800 606.538,140.634 606.400,140.431 606.400 C 140.228 606.400,139.522 605.860,138.862 605.200 C 138.202 604.540,137.822 604.000,138.017 604.000 C 138.213 604.000,138.001 603.370,137.547 602.600 C 137.093 601.830,136.576 601.200,136.398 601.200 C 136.220 601.200,136.169 600.840,136.284 600.400 C 136.399 599.960,136.337 599.600,136.147 599.600 C 135.952 599.600,135.845 577.791,135.903 550.000 L 136.006 500.400 120.581 500.400 L 105.156 500.400 105.314 548.900 M165.200 548.527 C 165.200 597.345,165.133 599.777,163.718 602.592 C 162.943 604.132,160.802 606.400,160.122 606.400 C 159.835 606.400,159.600 606.591,159.600 606.824 C 159.600 607.057,159.420 607.136,159.200 607.000 C 158.980 606.864,158.800 606.920,158.800 607.124 C 158.800 607.537,154.637 608.800,153.274 608.800 L 152.400 608.800 152.400 619.261 L 152.400 629.723 157.113 629.469 C 163.949 629.102,174.606 626.698,176.180 625.169 C 176.389 624.966,176.884 624.800,177.280 624.800 C 177.676 624.800,178.000 624.634,178.000 624.431 C 178.000 624.228,178.630 623.854,179.400 623.600 C 180.170 623.346,180.800 622.972,180.800 622.769 C 180.800 622.566,181.070 622.400,181.400 622.400 C 181.730 622.400,182.000 622.220,182.000 622.000 C 182.000 621.780,182.268 621.600,182.597 621.600 C 182.925 621.600,183.418 621.240,183.693 620.800 C 183.968 620.360,184.384 620.000,184.618 620.000 C 185.141 620.000,187.600 617.508,187.600 616.977 C 187.600 616.766,187.967 616.363,188.416 616.083 C 188.864 615.803,189.135 615.419,189.018 615.229 C 188.901 615.039,189.099 614.771,189.460 614.632 C 189.820 614.494,190.014 614.280,189.891 614.157 C 189.767 614.034,190.018 613.582,190.448 613.152 C 190.878 612.722,191.122 612.197,190.991 611.985 C 190.860 611.773,190.954 611.600,191.200 611.600 C 191.446 611.600,191.536 611.420,191.400 611.200 C 191.264 610.980,191.373 610.800,191.643 610.800 C 191.913 610.800,192.022 610.689,191.886 610.552 C 191.750 610.416,191.894 610.049,192.207 609.736 C 192.953 608.990,194.897 602.814,194.665 601.927 C 194.566 601.548,194.636 601.185,194.820 601.119 C 195.779 600.778,196.000 590.554,196.000 546.558 L 196.000 500.400 180.600 500.400 L 165.200 500.400 165.200 548.527 M206.400 563.800 L 206.400 627.200 221.200 627.200 L 236.000 627.200 236.000 563.800 L 236.000 500.400 221.200 500.400 L 206.400 500.400 206.400 563.800 M240.400 511.369 L 240.400 522.338 247.900 522.469 C 256.290 522.616,259.453 523.489,260.984 526.081 C 261.348 526.697,261.826 527.200,262.046 527.200 C 262.267 527.200,262.345 527.365,262.220 527.568 C 262.095 527.770,262.256 528.199,262.577 528.520 C 262.899 528.842,263.084 529.183,262.988 529.279 C 262.892 529.375,263.000 530.071,263.227 530.826 C 263.713 532.444,264.323 541.200,263.950 541.200 C 263.809 541.200,263.599 541.560,263.484 542.000 C 263.364 542.458,263.473 542.803,263.737 542.806 C 264.073 542.811,264.077 542.893,263.754 543.106 C 263.508 543.268,262.926 544.153,262.459 545.073 C 261.993 545.993,261.410 546.870,261.163 547.023 C 260.846 547.219,260.874 547.401,261.257 547.644 C 261.680 547.912,261.645 547.989,261.100 547.994 C 260.715 547.997,260.400 548.270,260.400 548.600 C 260.400 548.930,260.209 549.200,259.976 549.200 C 259.743 549.200,259.684 548.975,259.845 548.700 C 260.006 548.425,259.792 548.502,259.369 548.871 C 257.181 550.782,254.945 551.249,247.606 551.326 L 240.600 551.400 240.493 562.351 L 240.387 573.302 250.693 573.095 C 279.363 572.520,291.452 563.750,294.060 541.638 C 294.570 537.316,294.304 527.295,293.624 525.200 C 293.374 524.430,292.985 523.170,292.758 522.400 C 292.532 521.630,292.197 520.640,292.014 520.200 C 291.831 519.760,291.461 518.815,291.192 518.100 C 290.923 517.385,290.545 516.800,290.351 516.800 C 290.158 516.800,290.000 516.530,290.000 516.200 C 290.000 515.870,289.640 515.240,289.200 514.800 C 288.760 514.360,288.400 513.859,288.400 513.687 C 288.400 513.516,287.320 512.306,286.000 511.000 C 284.680 509.694,283.600 508.746,283.600 508.894 C 283.600 509.042,283.148 508.712,282.597 508.160 C 282.045 507.608,281.415 507.267,281.197 507.402 C 280.978 507.537,280.800 507.459,280.800 507.229 C 280.800 506.676,276.078 504.305,275.584 504.610 C 275.373 504.740,275.200 504.671,275.200 504.456 C 275.200 503.947,271.344 502.664,270.809 502.994 C 270.584 503.133,270.400 503.072,270.400 502.857 C 270.400 501.681,259.411 500.417,249.100 500.408 L 240.400 500.400 240.400 511.369 " stroke="none" fill="#4c4c4c" fill-rule="evenodd"></path><path id="path1" d="M205.433 5.589 C 206.075 6.243,206.769 6.783,206.975 6.789 C 207.181 6.795,206.832 6.260,206.200 5.600 C 205.568 4.940,204.874 4.400,204.658 4.400 C 204.443 4.400,204.792 4.935,205.433 5.589 M215.000 14.800 C 215.632 15.460,216.330 16.000,216.550 16.000 C 216.770 16.000,216.432 15.460,215.800 14.800 C 215.168 14.140,214.470 13.600,214.250 13.600 C 214.030 13.600,214.368 14.140,215.000 14.800 M187.851 25.149 C 183.924 29.081,180.873 32.398,181.071 32.520 C 181.269 32.643,184.633 29.426,188.547 25.371 C 192.460 21.317,195.511 18.000,195.327 18.000 C 195.143 18.000,191.778 21.217,187.851 25.149 M202.600 26.800 C 201.517 27.900,200.810 28.800,201.030 28.800 C 201.250 28.800,202.317 27.900,203.400 26.800 C 204.483 25.700,205.190 24.800,204.970 24.800 C 204.750 24.800,203.683 25.700,202.600 26.800 M226.089 25.266 C 226.174 25.522,226.684 26.009,227.222 26.348 L 228.200 26.963 227.230 25.882 C 226.183 24.714,225.844 24.531,226.089 25.266 M216.460 30.380 C 216.632 30.896,217.181 30.988,217.230 30.510 C 217.247 30.351,217.044 30.148,216.780 30.060 C 216.516 29.972,216.372 30.116,216.460 30.380 M207.334 35.839 C 204.877 38.311,202.978 40.445,203.114 40.580 C 203.376 40.843,212.400 32.026,212.400 31.507 C 212.400 30.853,211.651 31.493,207.334 35.839 M220.460 33.980 C 220.632 34.496,221.181 34.588,221.230 34.110 C 221.247 33.950,221.044 33.748,220.780 33.660 C 220.516 33.572,220.372 33.716,220.460 33.980 M224.400 37.551 C 224.400 38.063,225.576 38.957,225.867 38.667 C 226.157 38.376,225.263 37.200,224.751 37.200 C 224.558 37.200,224.400 37.358,224.400 37.551 M192.800 47.800 C 196.425 51.430,199.571 54.400,199.791 54.400 C 200.011 54.400,197.225 51.430,193.600 47.800 C 189.975 44.170,186.829 41.200,186.609 41.200 C 186.389 41.200,189.175 44.170,192.800 47.800 M143.797 55.300 L 133.400 65.800 143.900 55.403 C 153.657 45.741,154.580 44.800,154.297 44.800 C 154.241 44.800,149.516 49.525,143.797 55.300 M247.800 47.200 C 249.106 48.520,250.265 49.600,250.375 49.600 C 250.485 49.600,249.506 48.520,248.200 47.200 C 246.894 45.880,245.735 44.800,245.625 44.800 C 245.515 44.800,246.494 45.880,247.800 47.200 M167.600 56.200 C 169.681 58.290,171.474 60.000,171.584 60.000 C 171.694 60.000,170.081 58.290,168.000 56.200 C 165.919 54.110,164.126 52.400,164.016 52.400 C 163.906 52.400,165.519 54.110,167.600 56.200 M245.200 58.705 C 245.200 59.281,257.410 71.200,258.000 71.200 C 258.325 71.200,255.715 68.320,252.200 64.800 C 246.237 58.828,245.200 57.925,245.200 58.705 M202.772 64.781 C 201.138 66.311,199.985 67.571,200.211 67.581 C 200.437 67.591,201.872 66.340,203.400 64.800 C 206.971 61.202,206.610 61.191,202.772 64.781 M189.600 64.218 C 189.600 64.740,195.914 71.019,196.176 70.758 C 196.286 70.648,194.851 69.041,192.988 67.188 C 191.124 65.334,189.600 63.998,189.600 64.218 M165.980 71.000 C 168.107 73.090,170.013 74.800,170.216 74.800 C 170.418 74.800,168.881 73.090,166.800 71.000 C 164.719 68.910,162.812 67.200,162.564 67.200 C 162.315 67.200,163.853 68.910,165.980 71.000 M233.593 71.408 L 232.228 72.815 236.808 77.408 C 239.326 79.933,241.512 82.000,241.665 82.000 C 241.818 82.000,240.831 80.860,239.471 79.466 C 238.112 78.072,236.108 76.004,235.018 74.869 L 233.037 72.807 234.397 71.403 C 235.145 70.631,235.577 70.000,235.357 70.000 C 235.137 70.000,234.343 70.633,233.593 71.408 M338.000 137.400 C 371.989 171.390,399.889 199.200,399.999 199.200 C 400.109 199.200,372.389 171.390,338.400 137.400 C 304.411 103.410,276.511 75.600,276.401 75.600 C 276.291 75.600,304.011 103.410,338.000 137.400 M133.600 76.606 C 133.600 76.826,138.370 81.773,144.200 87.600 C 150.030 93.427,154.800 98.014,154.800 97.794 C 154.800 97.574,150.030 92.627,144.200 86.800 C 138.370 80.973,133.600 76.386,133.600 76.606 M171.610 95.390 C 170.420 96.595,169.576 97.709,169.733 97.867 C 170.027 98.160,174.400 94.081,174.400 93.514 C 174.400 92.814,173.667 93.307,171.610 95.390 M216.200 98.000 C 214.450 99.760,213.199 101.200,213.419 101.200 C 213.639 101.200,215.250 99.760,217.000 98.000 C 218.750 96.240,220.001 94.800,219.781 94.800 C 219.561 94.800,217.950 96.240,216.200 98.000 M168.012 98.384 C 167.688 98.589,167.527 98.861,167.654 98.988 C 167.969 99.303,169.200 98.801,169.200 98.357 C 169.200 97.901,168.760 97.911,168.012 98.384 M182.000 106.200 C 181.485 106.748,181.154 107.287,181.264 107.397 C 181.374 107.507,181.885 107.148,182.400 106.600 C 182.915 106.052,183.246 105.513,183.136 105.403 C 183.026 105.293,182.515 105.652,182.000 106.200 M190.000 119.400 C 195.166 124.570,199.574 128.800,199.794 128.800 C 200.014 128.800,195.966 124.570,190.800 119.400 C 185.634 114.230,181.226 110.000,181.006 110.000 C 180.786 110.000,184.834 114.230,190.000 119.400 M370.394 229.401 C 354.221 245.570,341.082 258.800,341.195 258.800 C 341.309 258.800,354.631 245.570,370.800 229.400 C 386.969 213.230,400.108 200.000,399.999 200.001 C 399.890 200.001,386.567 213.231,370.394 229.401 " stroke="none" fill="#544c44" fill-rule="evenodd"></path><path id="path2" d="M197.586 16.300 L 195.400 18.600 197.700 16.414 L 200.000 14.227 202.300 16.414 L 204.600 18.600 202.414 16.300 C 201.211 15.035,200.125 14.000,200.000 14.000 C 199.875 14.000,198.789 15.035,197.586 16.300 M218.800 32.600 C 219.546 33.370,220.247 34.000,220.357 34.000 C 220.467 34.000,219.946 33.370,219.200 32.600 C 218.454 31.830,217.753 31.200,217.643 31.200 C 217.533 31.200,218.054 31.830,218.800 32.600 M167.600 56.600 C 169.681 58.690,171.474 60.400,171.584 60.400 C 171.694 60.400,170.081 58.690,168.000 56.600 C 165.919 54.510,164.126 52.800,164.016 52.800 C 163.906 52.800,165.519 54.510,167.600 56.600 M233.387 55.300 L 231.000 57.800 233.500 55.413 C 234.875 54.099,236.000 52.974,236.000 52.913 C 236.000 52.617,235.605 52.978,233.387 55.300 M155.387 57.700 L 153.000 60.200 155.500 57.813 C 157.822 55.595,158.183 55.200,157.887 55.200 C 157.826 55.200,156.701 56.325,155.387 57.700 M243.183 56.900 C 244.164 57.945,245.019 58.800,245.083 58.800 C 245.384 58.800,245.066 58.441,243.300 56.783 L 241.400 55.000 243.183 56.900 M192.800 61.400 C 194.881 63.490,196.674 65.200,196.784 65.200 C 196.894 65.200,195.281 63.490,193.200 61.400 C 191.119 59.310,189.326 57.600,189.216 57.600 C 189.106 57.600,190.719 59.310,192.800 61.400 M203.391 64.900 L 200.200 68.200 203.500 65.009 C 205.315 63.255,206.800 61.770,206.800 61.709 C 206.800 61.418,206.354 61.835,203.391 64.900 M129.983 72.900 C 131.641 74.666,132.000 74.984,132.000 74.683 C 132.000 74.619,131.145 73.764,130.100 72.783 L 128.200 71.000 129.983 72.900 M269.781 73.300 L 268.200 75.000 269.900 73.419 C 271.481 71.948,271.784 71.600,271.481 71.600 C 271.416 71.600,270.651 72.365,269.781 73.300 M238.000 79.000 C 241.184 82.190,243.880 84.800,243.990 84.800 C 244.100 84.800,241.584 82.190,238.400 79.000 C 235.216 75.810,232.520 73.200,232.410 73.200 C 232.300 73.200,234.816 75.810,238.000 79.000 M165.400 84.400 C 166.483 85.500,167.460 86.400,167.570 86.400 C 167.680 86.400,166.883 85.500,165.800 84.400 C 164.717 83.300,163.740 82.400,163.630 82.400 C 163.520 82.400,164.317 83.300,165.400 84.400 M177.588 89.900 L 175.000 92.600 177.700 90.012 C 180.208 87.607,180.583 87.200,180.288 87.200 C 180.227 87.200,179.012 88.415,177.588 89.900 M221.600 89.800 C 223.017 91.230,224.267 92.400,224.377 92.400 C 224.487 92.400,223.417 91.230,222.000 89.800 C 220.583 88.370,219.333 87.200,219.223 87.200 C 219.113 87.200,220.183 88.370,221.600 89.800 M208.778 93.900 L 207.400 95.400 208.900 94.022 C 210.296 92.738,210.584 92.400,210.278 92.400 C 210.212 92.400,209.537 93.075,208.778 93.900 M84.991 232.500 L 81.800 235.800 85.100 232.609 C 88.165 229.646,88.582 229.200,88.291 229.200 C 88.230 229.200,86.745 230.685,84.991 232.500 M314.600 232.400 C 316.350 234.160,317.871 235.600,317.981 235.600 C 318.091 235.600,316.750 234.160,315.000 232.400 C 313.250 230.640,311.729 229.200,311.619 229.200 C 311.509 229.200,312.850 230.640,314.600 232.400 M62.981 254.500 L 61.400 256.200 63.100 254.619 C 64.681 253.148,64.984 252.800,64.681 252.800 C 64.616 252.800,63.851 253.565,62.981 254.500 M336.600 254.400 C 337.459 255.280,338.252 256.000,338.362 256.000 C 338.472 256.000,337.859 255.280,337.000 254.400 C 336.141 253.520,335.348 252.800,335.238 252.800 C 335.128 252.800,335.741 253.520,336.600 254.400 M161.506 605.011 C 160.684 605.775,160.154 606.400,160.327 606.400 C 160.501 606.400,161.254 605.770,162.000 605.000 C 163.741 603.203,163.443 603.210,161.506 605.011 M157.519 607.414 C 157.401 607.532,156.156 607.893,154.752 608.217 C 152.538 608.727,152.448 608.779,154.076 608.613 C 155.807 608.437,159.154 607.307,158.167 607.233 C 157.928 607.215,157.637 607.297,157.519 607.414 M145.000 608.390 C 145.764 608.728,148.314 608.957,147.967 608.656 C 147.875 608.576,146.990 608.404,146.000 608.273 C 144.798 608.114,144.466 608.153,145.000 608.390 " stroke="none" fill="#4c4c50" fill-rule="evenodd"></path><path id="path3" d="M197.586 16.300 L 195.400 18.600 197.700 16.414 L 200.000 14.227 202.300 16.414 L 204.600 18.600 202.414 16.300 C 201.211 15.035,200.125 14.000,200.000 14.000 C 199.875 14.000,198.789 15.035,197.586 16.300 M218.800 32.600 C 219.546 33.370,220.247 34.000,220.357 34.000 C 220.467 34.000,219.946 33.370,219.200 32.600 C 218.454 31.830,217.753 31.200,217.643 31.200 C 217.533 31.200,218.054 31.830,218.800 32.600 M167.600 56.600 C 169.681 58.690,171.474 60.400,171.584 60.400 C 171.694 60.400,170.081 58.690,168.000 56.600 C 165.919 54.510,164.126 52.800,164.016 52.800 C 163.906 52.800,165.519 54.510,167.600 56.600 M233.387 55.300 L 231.000 57.800 233.500 55.413 C 234.875 54.099,236.000 52.974,236.000 52.913 C 236.000 52.617,235.605 52.978,233.387 55.300 M155.387 57.700 L 153.000 60.200 155.500 57.813 C 157.822 55.595,158.183 55.200,157.887 55.200 C 157.826 55.200,156.701 56.325,155.387 57.700 M243.183 56.900 C 244.164 57.945,245.019 58.800,245.083 58.800 C 245.384 58.800,245.066 58.441,243.300 56.783 L 241.400 55.000 243.183 56.900 M192.800 61.400 C 194.881 63.490,196.674 65.200,196.784 65.200 C 196.894 65.200,195.281 63.490,193.200 61.400 C 191.119 59.310,189.326 57.600,189.216 57.600 C 189.106 57.600,190.719 59.310,192.800 61.400 M203.391 64.900 L 200.200 68.200 203.500 65.009 C 205.315 63.255,206.800 61.770,206.800 61.709 C 206.800 61.418,206.354 61.835,203.391 64.900 M129.983 72.900 C 131.641 74.666,132.000 74.984,132.000 74.683 C 132.000 74.619,131.145 73.764,130.100 72.783 L 128.200 71.000 129.983 72.900 M269.781 73.300 L 268.200 75.000 269.900 73.419 C 271.481 71.948,271.784 71.600,271.481 71.600 C 271.416 71.600,270.651 72.365,269.781 73.300 M238.000 79.000 C 241.184 82.190,243.880 84.800,243.990 84.800 C 244.100 84.800,241.584 82.190,238.400 79.000 C 235.216 75.810,232.520 73.200,232.410 73.200 C 232.300 73.200,234.816 75.810,238.000 79.000 M165.400 84.400 C 166.483 85.500,167.460 86.400,167.570 86.400 C 167.680 86.400,166.883 85.500,165.800 84.400 C 164.717 83.300,163.740 82.400,163.630 82.400 C 163.520 82.400,164.317 83.300,165.400 84.400 M177.588 89.900 L 175.000 92.600 177.700 90.012 C 180.208 87.607,180.583 87.200,180.288 87.200 C 180.227 87.200,179.012 88.415,177.588 89.900 M221.600 89.800 C 223.017 91.230,224.267 92.400,224.377 92.400 C 224.487 92.400,223.417 91.230,222.000 89.800 C 220.583 88.370,219.333 87.200,219.223 87.200 C 219.113 87.200,220.183 88.370,221.600 89.800 M208.778 93.900 L 207.400 95.400 208.900 94.022 C 210.296 92.738,210.584 92.400,210.278 92.400 C 210.212 92.400,209.537 93.075,208.778 93.900 M84.991 232.500 L 81.800 235.800 85.100 232.609 C 88.165 229.646,88.582 229.200,88.291 229.200 C 88.230 229.200,86.745 230.685,84.991 232.500 M314.600 232.400 C 316.350 234.160,317.871 235.600,317.981 235.600 C 318.091 235.600,316.750 234.160,315.000 232.400 C 313.250 230.640,311.729 229.200,311.619 229.200 C 311.509 229.200,312.850 230.640,314.600 232.400 M62.981 254.500 L 61.400 256.200 63.100 254.619 C 64.681 253.148,64.984 252.800,64.681 252.800 C 64.616 252.800,63.851 253.565,62.981 254.500 M336.600 254.400 C 337.459 255.280,338.252 256.000,338.362 256.000 C 338.472 256.000,337.859 255.280,337.000 254.400 C 336.141 253.520,335.348 252.800,335.238 252.800 C 335.128 252.800,335.741 253.520,336.600 254.400 M161.506 605.011 C 160.684 605.775,160.154 606.400,160.327 606.400 C 160.501 606.400,161.254 605.770,162.000 605.000 C 163.741 603.203,163.443 603.210,161.506 605.011 M157.519 607.414 C 157.401 607.532,156.156 607.893,154.752 608.217 C 152.538 608.727,152.448 608.779,154.076 608.613 C 155.807 608.437,159.154 607.307,158.167 607.233 C 157.928 607.215,157.637 607.297,157.519 607.414 M145.000 608.390 C 145.764 608.728,148.314 608.957,147.967 608.656 C 147.875 608.576,146.990 608.404,146.000 608.273 C 144.798 608.114,144.466 608.153,145.000 608.390 " stroke="none" fill="#4c4c50" fill-rule="evenodd"></path><path id="path4" d="M197.586 16.300 L 195.400 18.600 197.700 16.414 L 200.000 14.227 202.300 16.414 L 204.600 18.600 202.414 16.300 C 201.211 15.035,200.125 14.000,200.000 14.000 C 199.875 14.000,198.789 15.035,197.586 16.300 M218.800 32.600 C 219.546 33.370,220.247 34.000,220.357 34.000 C 220.467 34.000,219.946 33.370,219.200 32.600 C 218.454 31.830,217.753 31.200,217.643 31.200 C 217.533 31.200,218.054 31.830,218.800 32.600 M167.600 56.600 C 169.681 58.690,171.474 60.400,171.584 60.400 C 171.694 60.400,170.081 58.690,168.000 56.600 C 165.919 54.510,164.126 52.800,164.016 52.800 C 163.906 52.800,165.519 54.510,167.600 56.600 M233.387 55.300 L 231.000 57.800 233.500 55.413 C 234.875 54.099,236.000 52.974,236.000 52.913 C 236.000 52.617,235.605 52.978,233.387 55.300 M155.387 57.700 L 153.000 60.200 155.500 57.813 C 157.822 55.595,158.183 55.200,157.887 55.200 C 157.826 55.200,156.701 56.325,155.387 57.700 M243.183 56.900 C 244.164 57.945,245.019 58.800,245.083 58.800 C 245.384 58.800,245.066 58.441,243.300 56.783 L 241.400 55.000 243.183 56.900 M192.800 61.400 C 194.881 63.490,196.674 65.200,196.784 65.200 C 196.894 65.200,195.281 63.490,193.200 61.400 C 191.119 59.310,189.326 57.600,189.216 57.600 C 189.106 57.600,190.719 59.310,192.800 61.400 M203.391 64.900 L 200.200 68.200 203.500 65.009 C 205.315 63.255,206.800 61.770,206.800 61.709 C 206.800 61.418,206.354 61.835,203.391 64.900 M129.983 72.900 C 131.641 74.666,132.000 74.984,132.000 74.683 C 132.000 74.619,131.145 73.764,130.100 72.783 L 128.200 71.000 129.983 72.900 M269.781 73.300 L 268.200 75.000 269.900 73.419 C 271.481 71.948,271.784 71.600,271.481 71.600 C 271.416 71.600,270.651 72.365,269.781 73.300 M238.000 79.000 C 241.184 82.190,243.880 84.800,243.990 84.800 C 244.100 84.800,241.584 82.190,238.400 79.000 C 235.216 75.810,232.520 73.200,232.410 73.200 C 232.300 73.200,234.816 75.810,238.000 79.000 M165.400 84.400 C 166.483 85.500,167.460 86.400,167.570 86.400 C 167.680 86.400,166.883 85.500,165.800 84.400 C 164.717 83.300,163.740 82.400,163.630 82.400 C 163.520 82.400,164.317 83.300,165.400 84.400 M177.588 89.900 L 175.000 92.600 177.700 90.012 C 180.208 87.607,180.583 87.200,180.288 87.200 C 180.227 87.200,179.012 88.415,177.588 89.900 M221.600 89.800 C 223.017 91.230,224.267 92.400,224.377 92.400 C 224.487 92.400,223.417 91.230,222.000 89.800 C 220.583 88.370,219.333 87.200,219.223 87.200 C 219.113 87.200,220.183 88.370,221.600 89.800 M208.778 93.900 L 207.400 95.400 208.900 94.022 C 210.296 92.738,210.584 92.400,210.278 92.400 C 210.212 92.400,209.537 93.075,208.778 93.900 M84.991 232.500 L 81.800 235.800 85.100 232.609 C 88.165 229.646,88.582 229.200,88.291 229.200 C 88.230 229.200,86.745 230.685,84.991 232.500 M314.600 232.400 C 316.350 234.160,317.871 235.600,317.981 235.600 C 318.091 235.600,316.750 234.160,315.000 232.400 C 313.250 230.640,311.729 229.200,311.619 229.200 C 311.509 229.200,312.850 230.640,314.600 232.400 M62.981 254.500 L 61.400 256.200 63.100 254.619 C 64.681 253.148,64.984 252.800,64.681 252.800 C 64.616 252.800,63.851 253.565,62.981 254.500 M336.600 254.400 C 337.459 255.280,338.252 256.000,338.362 256.000 C 338.472 256.000,337.859 255.280,337.000 254.400 C 336.141 253.520,335.348 252.800,335.238 252.800 C 335.128 252.800,335.741 253.520,336.600 254.400 M161.506 605.011 C 160.684 605.775,160.154 606.400,160.327 606.400 C 160.501 606.400,161.254 605.770,162.000 605.000 C 163.741 603.203,163.443 603.210,161.506 605.011 M157.519 607.414 C 157.401 607.532,156.156 607.893,154.752 608.217 C 152.538 608.727,152.448 608.779,154.076 608.613 C 155.807 608.437,159.154 607.307,158.167 607.233 C 157.928 607.215,157.637 607.297,157.519 607.414 M145.000 608.390 C 145.764 608.728,148.314 608.957,147.967 608.656 C 147.875 608.576,146.990 608.404,146.000 608.273 C 144.798 608.114,144.466 608.153,145.000 608.390 " stroke="none" fill="#4c4c50" fill-rule="evenodd"></path></g></svg>